<svg width="751" height="413" viewBox="0 0 751 413" fill="none" xmlns="http://www.w3.org/2000/svg">
<g clip-path="url(#clip0_1_10)">
<path d="M114.562 352.891C97.8854 365.328 93.159 387.209 93.159 387.209C93.159 387.209 115.471 388.927 132.148 376.491C148.824 364.054 153.551 342.173 153.551 342.173C153.551 342.173 131.239 340.455 114.562 352.891Z" fill="#F1F1F1"/>
<path d="M121.509 358.73C113.494 377.932 93.4206 387.827 93.4206 387.827C93.4206 387.827 86.3421 366.59 94.3571 347.388C102.372 328.186 122.445 318.291 122.445 318.291C122.445 318.291 129.524 339.529 121.509 358.73Z" fill="#F1F1F1"/>
<path d="M601.311 303.221C599.539 291.28 599.071 279.182 599.915 267.141L601.311 247.211C593.618 262.524 595.357 282.679 601.311 303.221Z" fill="#CACACA"/>
<path d="M607.31 306.555C606.457 299.429 606.232 292.243 606.638 285.078L607.31 273.216C603.609 282.331 604.445 294.327 607.31 306.555Z" fill="#CACACA"/>
<path d="M633.974 321.225V327.893C633.971 328.423 633.759 328.93 633.385 329.305C633.011 329.679 632.504 329.891 631.974 329.893H628.642C628.554 329.893 628.467 329.91 628.386 329.944C628.305 329.977 628.232 330.026 628.17 330.088C628.108 330.15 628.058 330.224 628.025 330.305C627.992 330.386 627.975 330.473 627.975 330.56V385.236C627.972 385.766 627.761 386.273 627.386 386.647C627.012 387.022 626.505 387.234 625.975 387.236H585.318C584.788 387.236 584.279 387.025 583.904 386.65C583.53 386.275 583.319 385.766 583.318 385.236V330.56C583.318 330.384 583.247 330.214 583.123 330.089C582.998 329.964 582.828 329.894 582.652 329.893H578.653C578.123 329.893 577.614 329.682 577.239 329.307C576.864 328.932 576.654 328.423 576.653 327.893V321.225C576.653 320.963 576.704 320.702 576.805 320.459C576.905 320.217 577.052 319.996 577.238 319.81C577.424 319.624 577.644 319.477 577.887 319.377C578.13 319.276 578.39 319.225 578.653 319.225H631.974C632.504 319.227 633.012 319.438 633.386 319.813C633.761 320.187 633.972 320.695 633.974 321.225Z" fill="#F2F2F2"/>
<path d="M628.035 331.294H583.378V333.294H628.035V331.294Z" fill="#E6E6E6"/>
<path d="M627.975 360.728C613.032 366.915 597.926 366.983 582.652 360.728V346.636C597.356 341.695 613.271 341.695 627.975 346.636V360.728Z" fill="#E6E6E6"/>
<path d="M377.669 145.257C411.027 145.257 438.07 118.204 438.07 84.8323C438.07 51.4608 411.027 24.4079 377.669 24.4079C344.31 24.4079 317.268 51.4608 317.268 84.8323C317.268 118.204 344.31 145.257 377.669 145.257Z" fill="#FEB8B8"/>
<path d="M434.084 32.7031C425.054 18.0334 410.918 7.22377 394.398 2.35516L386.983 7.76845V0.739455C383.016 0.132002 379 -0.102006 374.989 0.0405077L368.592 5.83123V0.521603C359.12 1.69911 349.994 4.82719 341.791 9.7086C333.588 14.59 326.484 21.1188 320.929 28.8834C307.036 48.9197 304.691 76.7945 318.355 96.9916C322.106 85.4591 326.659 74.6383 330.411 63.107C333.359 63.509 336.347 63.5235 339.299 63.1501L343.863 52.4971L345.138 62.6993C359.283 61.4668 380.264 58.7596 393.674 56.2795L392.37 48.4525L400.172 54.9562C404.28 54.0103 406.719 53.1518 406.518 52.496C416.491 68.5809 428.697 78.8541 438.669 94.939C442.457 72.2584 446.817 53.3998 434.084 32.7031Z" fill="#2F2E41"/>
<path d="M507.574 240.216C505.497 227.715 503.355 214.975 497.547 203.714C493.73 196.338 487.672 189.309 479.504 187.85C477.895 187.707 476.314 187.341 474.806 186.762C472.413 185.609 440.253 167.243 435.141 164.044C430.753 161.298 423.824 156.214 420.331 156.214C416.817 156.136 403.341 159.274 350.744 155.161C350.744 155.161 336.294 160.858 325.114 167.767C324.944 167.655 270.523 196.891 268.478 196.814C264.606 196.651 261.007 199.131 258.787 202.254C256.568 205.377 255.527 209.244 254.437 212.982C266.324 239.463 277.199 265.979 289.087 292.46C289.644 293.458 289.939 294.58 289.947 295.722C289.708 296.908 289.202 298.023 288.468 298.984C282.638 308.352 282.824 320.135 283.461 331.145C284.098 342.156 284.886 353.786 279.967 363.656C278.629 366.365 276.89 368.845 275.617 371.555C272.637 377.691 271.56 397.319 273.301 403.912L491.362 410.162C486.674 397.268 507.574 240.216 507.574 240.216Z" fill="#6C63FF"/>
<path d="M235.588 293.635C235.153 296.783 235.109 299.974 235.457 303.133L238.583 348.035C238.876 352.267 239.165 356.489 239.562 360.711C240.312 368.903 241.432 377.031 242.823 385.147C242.854 386.299 243.341 387.392 244.177 388.185C245.013 388.979 246.129 389.408 247.281 389.379C261.039 392.291 275.254 392.174 289.294 391.381C310.72 390.185 365.535 387.921 368.884 383.569C372.233 379.217 370.282 372.178 365.915 368.659C361.548 365.14 289.212 356.56 289.212 356.56C289.919 350.957 292.051 345.68 294.073 340.36C297.706 330.924 301.1 321.179 301.165 311.071C301.23 300.963 297.423 290.336 289.147 284.545C282.338 279.791 273.572 278.909 265.275 279.105C259.239 279.278 248.809 277.831 243.295 280.193C238.932 282.115 236.403 289.361 235.588 293.635Z" fill="#FBBEBE"/>
<path d="M253.808 213.788C252.749 214.897 251.927 216.212 251.394 217.651C242.603 237.471 237.41 258.699 236.06 280.341C236.083 281.396 235.84 282.44 235.353 283.377C234.872 283.999 234.337 284.578 233.754 285.106C233.246 285.709 232.861 286.406 232.622 287.158C232.383 287.91 232.294 288.701 232.361 289.487C232.427 290.273 232.648 291.038 233.01 291.738C233.373 292.439 233.869 293.061 234.472 293.57C234.571 293.653 234.672 293.734 234.776 293.81C236.571 290.432 240.866 289.328 244.685 289.034C262.966 287.588 280.824 296.096 299.161 295.454C297.867 290.982 296.006 286.685 294.951 282.159C290.285 262.063 301.923 240.184 294.788 220.828C293.363 216.955 290.982 213.147 287.23 211.45C285.676 210.823 284.051 210.392 282.39 210.168C277.757 209.331 268.534 205.751 264.054 207.187C262.4 207.721 261.748 209.276 260.378 210.216C258.296 211.547 255.534 212.036 253.808 213.788Z" fill="#6C63FF"/>
<path d="M507.705 280.193C502.191 277.831 491.761 279.278 485.725 279.105C477.428 278.909 468.662 279.791 461.853 284.545C453.576 290.336 449.77 300.963 449.835 311.071C449.9 321.179 453.294 330.924 456.927 340.36C458.949 345.68 461.081 350.957 461.788 356.56C461.788 356.56 389.452 365.14 385.085 368.659C380.718 372.178 378.767 379.217 382.116 383.569C385.465 387.921 489.961 392.291 503.719 389.379C504.871 389.408 505.987 388.979 506.823 388.185C507.659 387.392 508.146 386.299 508.177 385.147C509.568 377.031 510.688 368.903 511.438 360.711C511.835 356.489 512.124 352.267 512.417 348.035L515.542 303.133C515.891 299.974 515.847 296.783 515.412 293.635C514.597 289.361 512.068 282.115 507.705 280.193Z" fill="#FBBEBE"/>
<path d="M490.622 210.216C489.252 209.276 488.6 207.721 486.946 207.187C482.466 205.751 473.243 209.331 468.61 210.168C466.949 210.392 465.324 210.823 463.77 211.45C460.018 213.147 457.637 216.955 456.212 220.828C449.077 240.184 460.715 262.063 456.049 282.159C454.994 286.685 453.133 290.982 451.839 295.454C470.176 296.096 488.034 287.588 506.315 289.034C510.134 289.328 514.429 290.432 516.224 293.81C516.328 293.734 516.429 293.653 516.528 293.57C517.131 293.061 517.627 292.439 517.99 291.739C518.352 291.038 518.573 290.273 518.639 289.487C518.706 288.701 518.617 287.91 518.378 287.158C518.139 286.406 517.754 285.709 517.246 285.106C516.663 284.578 516.128 283.999 515.647 283.377C515.16 282.44 514.917 281.396 514.94 280.341C513.59 258.699 508.397 237.471 499.606 217.651C499.073 216.212 498.251 214.897 497.192 213.788C495.466 212.036 492.704 211.547 490.622 210.216Z" fill="#6C63FF"/>
<path d="M359.78 391.523C368.783 391.523 376.082 384.222 376.082 375.215C376.082 366.208 368.783 358.906 359.78 358.906C350.777 358.906 343.478 366.208 343.478 375.215C343.478 384.222 350.777 391.523 359.78 391.523Z" fill="#FBBEBE"/>
<path d="M395.878 391.523C404.881 391.523 412.18 384.222 412.18 375.215C412.18 366.208 404.881 358.906 395.878 358.906C386.874 358.906 379.576 366.208 379.576 375.215C379.576 384.222 386.874 391.523 395.878 391.523Z" fill="#FBBEBE"/>
<path d="M496.507 411.964H272.539C269.925 411.961 267.418 410.92 265.569 409.071C263.72 407.221 262.679 404.713 262.676 402.097V266.169C262.679 263.554 263.72 261.046 265.569 259.196C267.418 257.346 269.925 256.306 272.539 256.303H496.507C499.122 256.306 501.629 257.346 503.478 259.196C505.327 261.046 506.367 263.554 506.371 266.169V402.097C506.367 404.713 505.327 407.221 503.478 409.071C501.629 410.92 499.122 411.961 496.507 411.964Z" fill="#3F3D56"/>
<path d="M383.98 340.662C387.584 340.662 390.506 337.739 390.506 334.133C390.506 330.528 387.584 327.605 383.98 327.605C380.376 327.605 377.455 330.528 377.455 334.133C377.455 337.739 380.376 340.662 383.98 340.662Z" fill="white"/>
<path d="M751 384.547H0V407.634H44.4208V413H706.596V407.634H751V384.547Z" fill="#F1F1F1"/>
<path d="M322.126 107.354C312.421 107.354 304.553 98.8436 304.553 88.3459V78.8419C304.553 68.3442 312.421 59.8342 322.126 59.8342L322.126 107.354Z" fill="#6C63FF"/>
<path d="M434.288 59.8342C443.994 59.8342 451.861 68.3443 451.861 78.842V88.3459C451.861 98.8436 443.994 107.354 434.288 107.354V59.8342Z" fill="#6C63FF"/>
<path d="M443.497 80.3354H440.709C440.709 42.0881 411.941 10.9714 376.581 10.9714C341.221 10.9714 312.453 42.0881 312.453 80.3354H309.665C309.665 40.425 339.683 7.95558 376.581 7.95558C413.479 7.9556 443.497 40.4251 443.497 80.3354Z" fill="#6C63FF"/>
</g>
<defs>
<clipPath id="clip0_1_10">
<rect width="751" height="413" fill="white"/>
</clipPath>
</defs>
</svg>
