<svg width="36" height="36" viewBox="0 0 36 36" fill="none" xmlns="http://www.w3.org/2000/svg">
<g clip-path="url(#clip0_2_49)">
<path fill-rule="evenodd" clip-rule="evenodd" d="M28.7705 7.22954C26.6403 5.09967 23.9264 3.64927 20.972 3.06175C18.0176 2.47422 14.9553 2.77595 12.1724 3.92879C9.38941 5.08163 7.0108 7.03379 5.33731 9.53844C3.66381 12.0431 2.77059 14.9877 2.77059 18C2.77059 21.0123 3.66381 23.9569 5.33731 26.4616C7.0108 28.9662 9.38941 30.9184 12.1724 32.0712C14.9553 33.224 18.0176 33.5258 20.972 32.9383C23.9264 32.3507 26.6403 30.9003 28.7705 28.7705C29.0329 28.5259 29.3801 28.3927 29.7388 28.3991C30.0975 28.4054 30.4398 28.5507 30.6934 28.8044C30.9471 29.0581 31.0924 29.4003 31.0988 29.759C31.1051 30.1177 30.972 30.4649 30.7274 30.7274C23.6991 37.7575 12.3028 37.7575 5.27261 30.7274C-1.75754 23.6991 -1.75754 12.3028 5.27261 5.27262C12.3009 -1.75754 23.6972 -1.75754 30.7274 5.27262C32.4012 6.94226 33.7286 8.92614 34.6334 11.1103C35.5383 13.2944 36.0027 15.6358 36 18C36 19.8 35.4535 21.4837 34.5065 22.7465C33.5575 24.0111 32.1434 24.9231 30.4615 24.9231C28.7926 24.9231 27.3858 24.024 26.4369 22.7742C25.4359 24.5435 23.9038 25.9534 22.0575 26.8042C20.2112 27.655 18.1441 27.9037 16.1487 27.5152C14.1532 27.1267 12.3305 26.1205 10.9383 24.6391C9.54608 23.1577 8.65492 21.2761 8.39089 19.2604C8.12685 17.2447 8.5033 15.197 9.46698 13.407C10.4307 11.617 11.9328 10.1754 13.7608 9.28599C15.5889 8.39662 17.6503 8.10456 19.6535 8.45114C21.6566 8.79771 23.5001 9.76538 24.9231 11.2172V11.0769C24.9231 10.7097 25.0689 10.3575 25.3286 10.0979C25.5883 9.83819 25.9405 9.69231 26.3077 9.69231C26.6749 9.69231 27.0271 9.83819 27.2868 10.0979C27.5464 10.3575 27.6923 10.7097 27.6923 11.0769V18C27.6923 19.2591 28.0763 20.3446 28.632 21.0849C29.1858 21.8252 29.8486 22.1538 30.4615 22.1538C31.0745 22.1538 31.7354 21.8252 32.2911 21.0849C32.8449 20.3465 33.2308 19.2572 33.2308 18C33.2338 15.9994 32.8412 14.0179 32.0758 12.1695C31.3103 10.3211 30.187 8.64228 28.7705 7.22954ZM24.9231 18C24.9231 16.1639 24.1937 14.403 22.8953 13.1046C21.597 11.8063 19.8361 11.0769 18 11.0769C16.1639 11.0769 14.403 11.8063 13.1046 13.1046C11.8063 14.403 11.0769 16.1639 11.0769 18C11.0769 19.8361 11.8063 21.597 13.1046 22.8954C14.403 24.1937 16.1639 24.9231 18 24.9231C19.8361 24.9231 21.597 24.1937 22.8953 22.8954C24.1937 21.597 24.9231 19.8361 24.9231 18Z" fill="black"/>
</g>
<defs>
<clipPath id="clip0_2_49">
<rect width="36" height="36" fill="white"/>
</clipPath>
</defs>
</svg>
