<svg width="36" height="36" viewBox="0 0 36 36" fill="none" xmlns="http://www.w3.org/2000/svg">
<path d="M35.9295 6.85501C34.5817 7.44842 33.1539 7.84012 31.692 8.01751C33.2312 7.09238 34.3836 5.64158 34.9365 3.93301C33.51 4.76551 31.929 5.37151 30.246 5.70901C29.1356 4.52165 27.6643 3.73414 26.0605 3.46876C24.4566 3.20338 22.81 3.47498 21.3764 4.24139C19.9428 5.00781 18.8023 6.22613 18.1321 7.70719C17.4619 9.18825 17.2994 10.8492 17.67 12.432C11.535 12.1425 6.1005 9.19501 2.46 4.74301C1.79819 5.86773 1.453 7.15055 1.461 8.45551C1.461 11.0205 2.766 13.275 4.743 14.5995C3.57129 14.5622 2.42546 14.2454 1.401 13.6755V13.7655C1.40034 15.4701 1.9894 17.1224 3.06826 18.4421C4.14712 19.7619 5.64932 20.6677 7.32 21.006C6.23745 21.2961 5.10362 21.3396 4.002 21.1335C4.47618 22.6005 5.39649 23.8829 6.63452 24.8018C7.87255 25.7206 9.36653 26.23 10.908 26.259C8.29729 28.3079 5.07371 29.42 1.755 29.4165C1.17 29.4165 0.5865 29.382 0 29.316C3.38356 31.4825 7.31777 32.6325 11.3355 32.6295C24.915 32.6295 32.3325 21.3855 32.3325 11.652C32.3325 11.337 32.3325 11.022 32.31 10.707C33.759 9.6643 35.0088 8.36974 36 6.88501L35.9295 6.85501Z" fill="black"/>
</svg>
